<?xml version="1.0" encoding="UTF-8" standalone="no"?>
<svg
   xmlns:dc="http://purl.org/dc/elements/1.1/"
   xmlns:cc="http://creativecommons.org/ns#"
   xmlns:rdf="http://www.w3.org/1999/02/22-rdf-syntax-ns#"
   xmlns:svg="http://www.w3.org/2000/svg"
   xmlns="http://www.w3.org/2000/svg"
   id="svg4"
   xml:space="preserve"
   viewBox="0 0 1024 768"
   y="0px"
   x="0px"
   version="1.1"><metadata
     id="metadata10"><rdf:RDF><cc:Work
         rdf:about=""><dc:format>image/svg+xml</dc:format><dc:type
           rdf:resource="http://purl.org/dc/dcmitype/StillImage" /></cc:Work></rdf:RDF></metadata><defs
     id="defs8" /><path
     id="path2"
     d="m257.28 339.91c-0.32 0-0.63 0.07-0.88 0.27s-0.4 0.53-0.4 0.88v85.86c0 0.35 0.15 0.68 0.4 0.88s0.56 0.28 0.88 0.28h28.94c9.19 0 16.79-2.78 22.09-8 5.29-5.22 8.26-12.86 8.26-22.47v-26.87c0-9.55-2.94-17.28-8.21-22.6-5.28-5.33-12.89-8.23-22.14-8.23h-28.94zm99.05 0c-0.32 0-0.63 0.07-0.88 0.27s-0.4 0.53-0.4 0.88v85.86c0 0.35 0.15 0.68 0.4 0.88s0.56 0.28 0.88 0.28h49.46c0.31 0 0.63-0.09 0.85-0.31s0.31-0.54 0.31-0.85v-2.32c0-0.31-0.09-0.63-0.31-0.85s-0.54-0.3-0.85-0.3h-45.74v-38h41.34c0.32 0 0.63-0.07 0.88-0.27s0.4-0.53 0.4-0.88v-2.32c0-0.35-0.15-0.68-0.4-0.88s-0.56-0.28-0.88-0.28h-41.34v-36.28h43.91c0.31 0 0.63-0.09 0.85-0.31s0.31-0.53 0.31-0.85v-2.32c0-0.31-0.09-0.63-0.31-0.85s-0.54-0.3-0.85-0.3h-47.63zm87.36 0c-0.32 0-0.63 0.07-0.88 0.27s-0.4 0.53-0.4 0.88v85.86c0 0.35 0.15 0.68 0.4 0.88s0.56 0.28 0.88 0.28h2.56c0.28 0 0.56-0.09 0.79-0.29 0.22-0.2 0.37-0.52 0.37-0.87l-0.12-78.58 52.1 79.06-0.05-0.1c0.11 0.33 0.38 0.53 0.64 0.64 0.25 0.11 0.51 0.14 0.74 0.14h2.93c0.32 0 0.63-0.08 0.88-0.28s0.4-0.53 0.4-0.88v-85.86c0-0.35-0.15-0.68-0.4-0.88s-0.56-0.27-0.88-0.27h-2.44c-0.32 0-0.63 0.07-0.88 0.27s-0.4 0.53-0.4 0.88l0.12 78.82-52.1-79.29c-0.13-0.27-0.35-0.44-0.56-0.54-0.24-0.11-0.46-0.14-0.65-0.14h-3.05zm226.55 0c-0.31 0-0.63 0.07-0.88 0.27s-0.4 0.53-0.4 0.88v85.86c0 0.35 0.15 0.68 0.4 0.88s0.57 0.28 0.88 0.28h2.57c0.27 0 0.56-0.09 0.78-0.29 0.23-0.2 0.37-0.52 0.37-0.87v-35.97h20.25l28.08 36.46c0.13 0.26 0.36 0.43 0.58 0.53 0.25 0.1 0.51 0.14 0.74 0.14h3.3c0.42 0 0.81-0.22 0.96-0.57 0.14-0.34 0.07-0.7-0.09-1.02l-0.02-0.04-27.78-35.71c8.12-0.55 14.7-3.01 19.25-7.21 4.7-4.35 7.25-10.5 7.25-18.04 0-8.04-2.83-14.47-7.95-18.86-5.12-4.38-12.49-6.72-21.54-6.72h-26.75zm94.04 0c-0.32 0-0.63 0.07-0.88 0.27s-0.4 0.53-0.4 0.88v85.86c0 0.35 0.15 0.68 0.4 0.88s0.56 0.28 0.88 0.28h2.56c0.28 0 0.56-0.09 0.79-0.29 0.22-0.2 0.37-0.52 0.37-0.87v-85.86c0-0.35-0.15-0.66-0.37-0.86-0.23-0.2-0.51-0.29-0.79-0.29h-2.56zm-178.27 1.05c-0.01 0.01-11.33 19.61-25.16 43.56l-25.14 43.56 25.15 0.01c13.83 0.01 36.46 0.01 50.3 0l25.14-0.01-25.14-43.56c-13.82-23.95-25.14-43.56-25.15-43.56zm-325.01 3.58h25.1c7.98 0 14.32 2.41 18.69 6.86 4.37 4.46 6.78 11 6.78 19.34v26.87c0 8.34-2.41 14.75-6.78 19.09-4.36 4.33-10.71 6.62-18.69 6.62h-25.1v-78.78zm412.96 0h23.03c7.81 0 13.96 1.91 18.15 5.46s6.46 8.74 6.46 15.49c0 6.8-2.27 11.97-6.46 15.47-4.19 3.51-10.34 5.35-18.15 5.35h-23.03v-41.77zm-87.95 6.01s9.46 16.35 21 36.35c11.54 19.99 20.99 36.36 20.99 36.38 0.01 0.02-17.02 0.03-41.99 0.03-25.07 0-42.01-0.01-42-0.03 0-0.02 9.45-16.39 20.99-36.38 11.55-20 21-36.35 21.01-36.35z"
     fill="#000000" /></svg>